<?xml version="1.0" encoding="UTF-8"?>
<svg width="16px" height="16px" viewBox="0 0 16 16" version="1.1" xmlns="http://www.w3.org/2000/svg" xmlns:xlink="http://www.w3.org/1999/xlink">
    <!-- Generator: Sketch 48.2 (47327) - http://www.bohemiancoding.com/sketch -->
    <title>Download Icon</title>
    <desc>Created with Sketch.</desc>
    <defs></defs>
    <g id="Download" stroke="none" stroke-width="1" fill="none" fill-rule="evenodd" transform="translate(-14.000000, -14.000000)">
        <path d="M16,28.0046024 C16,28.0025655 27.9991283,28 27.9991283,28 C27.9958355,28 28,23 28,23 C28,22.4477153 28.4477153,22 29,22 C29.5522847,22 30,22.4477153 30,23 L30,28.0046024 C30,29.0997558 29.1010492,30 27.9991283,30 L16.0008717,30 C14.8942352,30 14,29.1085179 14,28.0046024 L14,23 C14,22.4477153 14.4477153,22 15,22 C15.5522847,22 16,22.4477153 16,23 L16,28.0046024 Z M18.70575,18.267 C18.31475,17.872 17.68275,17.872 17.29175,18.267 C16.90075,18.663 16.90075,19.304 17.29175,19.699 L20.93875,23.548 C21.22275,23.834 21.59775,23.992 21.99975,23.992 C22.40075,23.992 22.77775,23.834 23.05975,23.548 L26.70675,19.699 C27.09775,19.304 27.09775,18.663 26.70675,18.267 C26.31675,17.872 25.68375,17.872 25.29275,18.267 L23.00075,20.745 L23.00075,15 C23.00075,14.448 22.55275,14 22.00075,14 C21.44875,14 21.00075,14.448 21.00075,15 L21.00075,20.747 L18.70575,18.267 Z" id="Download-Icon" fill="#1A16E3" fill-rule="nonzero"></path>
    </g>
</svg>